<svg width="16" height="17" viewBox="0 0 16 17" fill="none" xmlns="http://www.w3.org/2000/svg">
<circle cx="8" cy="8.5" r="8" fill="#AC42D1" fill-opacity="0.9"/>
<path d="M5 8C4.72386 8 4.5 8.22386 4.5 8.5C4.5 8.77614 4.72386 9 5 9V8ZM11.3536 8.85355C11.5488 8.65829 11.5488 8.34171 11.3536 8.14645L8.17157 4.96447C7.97631 4.7692 7.65973 4.7692 7.46447 4.96447C7.2692 5.15973 7.2692 5.47631 7.46447 5.67157L10.2929 8.5L7.46447 11.3284C7.2692 11.5237 7.2692 11.8403 7.46447 12.0355C7.65973 12.2308 7.97631 12.2308 8.17157 12.0355L11.3536 8.85355ZM5 9H11V8H5V9Z" fill="white"/>
</svg>
