<svg width="19" height="14" viewBox="0 0 19 14" fill="none" xmlns="http://www.w3.org/2000/svg">
<path d="M11.2273 4.44149C11.2273 4.31194 11.2742 4.17866 11.368 4.04163C11.4619 3.9046 11.5658 3.81478 11.6798 3.77217C12.0972 3.62823 12.5147 3.52028 12.9321 3.44831C13.3495 3.37634 13.7888 3.34035 14.25 3.34035C14.5379 3.34035 14.8223 3.35849 15.1033 3.39476C15.3842 3.43104 15.6612 3.47767 15.9341 3.53467C16.0636 3.56346 16.1753 3.63543 16.2692 3.75058C16.363 3.86573 16.4097 3.99528 16.4091 4.13922C16.4091 4.38391 16.3299 4.56384 16.1716 4.67899C16.0133 4.79414 15.8117 4.82293 15.567 4.76535C15.3655 4.72217 15.1534 4.68964 14.9305 4.66776C14.7077 4.64588 14.4809 4.63523 14.25 4.63581C13.8758 4.63581 13.5087 4.67179 13.1489 4.74376C12.789 4.81573 12.4436 4.90929 12.1125 5.02444C11.8534 5.1252 11.6412 5.118 11.476 5.00285C11.3108 4.8877 11.2278 4.70058 11.2273 4.44149ZM11.2273 9.19149C11.2273 9.06194 11.2742 8.92865 11.368 8.79162C11.4619 8.65459 11.5661 8.56478 11.6807 8.52217C12.0981 8.37823 12.5155 8.27028 12.933 8.19831C13.3504 8.12634 13.7894 8.09035 14.25 8.09035C14.5379 8.09035 14.8223 8.10849 15.1033 8.14476C15.3842 8.18103 15.6612 8.22767 15.9341 8.28467C16.0636 8.31346 16.1753 8.38543 16.2692 8.50058C16.363 8.61573 16.4097 8.74528 16.4091 8.88922C16.4091 9.13391 16.3299 9.31384 16.1716 9.42899C16.0133 9.54414 15.8117 9.57293 15.567 9.51535C15.3655 9.47217 15.1534 9.43964 14.9305 9.41776C14.7077 9.39588 14.4809 9.38523 14.25 9.38581C13.8758 9.38581 13.5087 9.41834 13.1489 9.4834C12.789 9.54846 12.4436 9.63828 12.1125 9.75285C11.8534 9.85361 11.641 9.84987 11.4751 9.74162C11.3093 9.63338 11.2267 9.45029 11.2273 9.19235V9.19149ZM11.2273 6.81649C11.2273 6.68694 11.2742 6.55366 11.368 6.41663C11.4619 6.27959 11.5661 6.18978 11.6807 6.14717C12.0981 6.00323 12.5155 5.89528 12.933 5.82331C13.3504 5.75134 13.7894 5.71535 14.25 5.71535C14.5379 5.71535 14.8223 5.73349 15.1033 5.76976C15.3842 5.80603 15.6612 5.85267 15.9341 5.90967C16.0636 5.93846 16.1753 6.01043 16.2692 6.12558C16.363 6.24073 16.4097 6.37028 16.4091 6.51422C16.4091 6.75891 16.3299 6.93884 16.1716 7.05399C16.0133 7.16914 15.8117 7.19793 15.567 7.14035C15.3655 7.09717 15.1534 7.06464 14.9305 7.04276C14.7077 7.02088 14.4809 7.01023 14.25 7.01081C13.8758 7.01081 13.5087 7.04679 13.1489 7.11876C12.789 7.19073 12.4436 7.28429 12.1125 7.39944C11.8534 7.5002 11.6412 7.493 11.476 7.37785C11.3108 7.2627 11.2278 7.07558 11.2273 6.81649ZM4.75 10.6813C5.42651 10.6813 6.08518 10.757 6.726 10.9084C7.36682 11.0598 8.0036 11.2864 8.63636 11.5881V3.08126C8.04621 2.73581 7.42007 2.47672 6.75795 2.30399C6.09583 2.13126 5.42651 2.0449 4.75 2.0449C4.23182 2.0449 3.71709 2.09528 3.20582 2.19604C2.69454 2.29679 2.2017 2.44793 1.72727 2.64944V11.1994C2.23106 11.0267 2.73139 10.8972 3.22827 10.8108C3.72515 10.7244 4.23239 10.6813 4.75 10.6813ZM10.3636 11.5881C10.997 11.2858 11.6338 11.059 12.274 10.9075C12.9142 10.7561 13.5729 10.6807 14.25 10.6813C14.7682 10.6813 15.2757 10.7244 15.7726 10.8108C16.2695 10.8972 16.7695 11.0267 17.2727 11.1994V2.64944C16.7977 2.44793 16.3046 2.29679 15.7933 2.19604C15.282 2.09528 14.7676 2.0449 14.25 2.0449C13.5735 2.0449 12.9042 2.13126 12.242 2.30399C11.5799 2.47672 10.9538 2.73581 10.3636 3.08126V11.5881ZM9.5 13.6824C9.29848 13.6824 9.10762 13.6571 8.92741 13.6064C8.74719 13.5557 8.57821 13.4875 8.42045 13.4017C7.85909 13.0707 7.26894 12.8225 6.65 12.6573C6.03106 12.492 5.39773 12.4091 4.75 12.4085C4.14545 12.4085 3.55156 12.4877 2.96832 12.646C2.38507 12.8044 1.82745 13.0275 1.29545 13.3153C0.993181 13.4737 0.701848 13.4665 0.421454 13.2938C0.141061 13.121 0.000575757 12.8691 0 12.5381V2.13126C0 1.97293 0.0397273 1.82179 0.119182 1.67785C0.198636 1.53391 0.317242 1.42596 0.475 1.35399C1.13712 1.00854 1.82803 0.749445 2.54773 0.576718C3.26742 0.403991 4.00151 0.317627 4.75 0.317627C5.58485 0.317627 6.40185 0.425581 7.201 0.64149C8.00015 0.8574 8.76648 1.18126 9.5 1.61308C10.2341 1.18126 11.0007 0.8574 11.7999 0.64149C12.599 0.425581 13.4157 0.317627 14.25 0.317627C14.9985 0.317627 15.7326 0.403991 16.4523 0.576718C17.172 0.749445 17.8629 1.00854 18.525 1.35399C18.6833 1.42596 18.8022 1.53391 18.8817 1.67785C18.9611 1.82179 19.0006 1.97293 19 2.13126V12.5381C19 12.8691 18.8598 13.121 18.5794 13.2938C18.299 13.4665 18.0074 13.4737 17.7045 13.3153C17.172 13.0275 16.6143 12.8044 16.0317 12.646C15.449 12.4877 14.8551 12.4085 14.25 12.4085C13.6023 12.4085 12.9689 12.4914 12.35 12.6573C11.7311 12.8231 11.1409 13.0712 10.5795 13.4017C10.4212 13.4881 10.2519 13.5566 10.0717 13.6073C9.89151 13.6579 9.70094 13.683 9.5 13.6824Z" fill="white" fill-opacity="0.7"/>
</svg>
