<svg width="17" height="15" viewBox="0 0 17 15" fill="none" xmlns="http://www.w3.org/2000/svg">
<path d="M8.71424 12.5595L8.63487 12.6389L8.54757 12.5595C4.77773 9.1389 2.28567 6.87699 2.28567 4.58334C2.28567 2.99604 3.47614 1.80556 5.06344 1.80556C6.28567 1.80556 7.47614 2.59921 7.89678 3.67858H9.37297C9.7936 2.59921 10.9841 1.80556 12.2063 1.80556C13.7936 1.80556 14.9841 2.99604 14.9841 4.58334C14.9841 6.87699 12.492 9.1389 8.71424 12.5595ZM12.2063 0.218262C10.8253 0.218262 9.49995 0.861119 8.63487 1.86906C7.76979 0.861119 6.4444 0.218262 5.06344 0.218262C2.619 0.218262 0.698364 2.13096 0.698364 4.58334C0.698364 7.5754 3.39678 10.0278 7.48408 13.7341L8.63487 14.7818L9.78567 13.7341C13.873 10.0278 16.5714 7.5754 16.5714 4.58334C16.5714 2.13096 14.6507 0.218262 12.2063 0.218262Z" fill="#FFF8E0"/>
</svg>
