<svg width="13" height="15" viewBox="0 0 13 15" fill="none" xmlns="http://www.w3.org/2000/svg">
<path d="M1.5873 12.8573H3.96826V8.09535H8.73016V12.8573H11.1111V5.71439L6.34921 2.14297L1.5873 5.71439V12.8573ZM1.5873 14.4446C1.15079 14.4446 0.776985 14.289 0.465874 13.9779C0.154763 13.6668 -0.000527753 13.2932 1.34746e-06 12.8573V5.71439C1.34746e-06 5.46307 0.0563504 5.22498 0.169049 5.00011C0.281747 4.77524 0.437039 4.59006 0.634922 4.44455L5.39683 0.873124C5.54233 0.767304 5.69445 0.687939 5.85318 0.635029C6.01191 0.582119 6.17725 0.555664 6.34921 0.555664C6.52117 0.555664 6.68651 0.582119 6.84524 0.635029C7.00397 0.687939 7.15609 0.767304 7.30159 0.873124L12.0635 4.44455C12.2619 4.59006 12.4175 4.77524 12.5302 5.00011C12.6429 5.22498 12.6989 5.46307 12.6984 5.71439V12.8573C12.6984 13.2938 12.5429 13.6676 12.2317 13.9787C11.9206 14.2898 11.5471 14.4451 11.1111 14.4446H7.14286V9.68265H5.55556V14.4446H1.5873Z" fill="white"/>
</svg>
