<svg id="Moon" enable-background="new 0 0 512 512" height="512" viewBox="0 0 512 512" width="512" xmlns="http://www.w3.org/2000/svg"><g><g><path d="m364.851 81.806c-7.019-5.143-14.379-9.847-22.043-14.068-2.113-1.164-4.508 1.009-3.505 3.203 11.64 25.483 18.159 53.796 18.219 83.628.222 110.842-92.111 203.174-202.953 202.952-29.833-.06-58.146-6.579-83.63-18.22-2.193-1.002-4.365 1.391-3.202 3.504 4.221 7.665 8.926 15.026 14.069 22.046 40.618 55.437 108.739 89.455 184.279 81.919 95.281-9.505 171.181-85.406 180.685-180.687 7.535-75.539-26.483-143.66-81.919-184.277z" fill="#ffc95f"/><path d="m371.793 87.152c27.737 34.65 44.337 78.601 44.337 126.44 0 111.859-90.68 202.538-202.538 202.538-47.839 0-91.789-16.6-126.44-44.337 37.114 46.33 94.139 76.017 158.12 76.017 111.859 0 202.538-90.679 202.538-202.538 0-63.981-29.687-121.006-76.017-158.12z" fill="#ffba40"/></g><g><path d="m194.136 127.064 20.538 41.615c.364.738 1.068 1.249 1.882 1.368l40.912 5.945c2.051.298 2.869 2.818 1.386 4.264l-29.604 28.857c-.589.574-.858 1.402-.719 2.213l6.989 40.747c.35 2.042-1.793 3.6-3.627 2.635l-36.593-19.238c-.728-.383-1.598-.383-2.327 0l-36.593 19.238c-1.834.964-3.978-.593-3.627-2.635l6.989-40.747c.139-.811-.13-1.638-.719-2.213l-29.604-28.857c-1.484-1.446-.665-3.966 1.386-4.264l40.912-5.945c.814-.118 1.518-.63 1.882-1.368z" fill="#ffc95f"/><path d="m258.853 180.256c1.484-1.446.665-3.966-1.385-4.264l-27.051-3.931-15.047 14.667c-.589.574-.858 1.402-.719 2.213l6.989 40.746c.35 2.042-1.793 3.6-3.627 2.635l-36.593-19.238c-.728-.383-1.598-.383-2.327 0l-21.602 11.357-4.739 27.63c-.35 2.042 1.793 3.6 3.627 2.635l36.593-19.238c.728-.383 1.598-.383 2.327 0l36.593 19.238c1.834.964 3.978-.593 3.627-2.635l-6.989-40.747c-.139-.811.13-1.638.719-2.213z" fill="#ffba40"/></g></g></svg>