<svg width="13" height="13" viewBox="0 0 13 13" fill="none" xmlns="http://www.w3.org/2000/svg">
<path d="M11.9889 13L7.43889 8.45C7.07778 8.73889 6.6625 8.96759 6.19306 9.13611C5.72361 9.30463 5.22407 9.38889 4.69444 9.38889C3.38241 9.38889 2.27211 8.93437 1.36356 8.02533C0.455 7.1163 0.000481481 6.006 0 4.69444C0 3.38241 0.454519 2.27211 1.36356 1.36356C2.27259 0.455 3.38289 0.000481481 4.69444 0C6.00648 0 7.11678 0.454519 8.02533 1.36356C8.93389 2.27259 9.38841 3.38289 9.38889 4.69444C9.38889 5.22407 9.30463 5.72361 9.13611 6.19306C8.96759 6.6625 8.73889 7.07778 8.45 7.43889L13 11.9889L11.9889 13ZM4.69444 7.94444C5.59722 7.94444 6.3647 7.62835 6.99689 6.99617C7.62907 6.36398 7.94493 5.59674 7.94444 4.69444C7.94444 3.79167 7.62835 3.02418 6.99617 2.392C6.36398 1.75981 5.59674 1.44396 4.69444 1.44444C3.79167 1.44444 3.02418 1.76054 2.392 2.39272C1.75981 3.02491 1.44396 3.79215 1.44444 4.69444C1.44444 5.59722 1.76054 6.3647 2.39272 6.99689C3.02491 7.62907 3.79215 7.94493 4.69444 7.94444Z" fill="white" fill-opacity="0.9"/>
</svg>
