<svg id="Sun" enable-background="new 0 0 512 512" height="512" viewBox="0 0 512 512" width="512" xmlns="http://www.w3.org/2000/svg"><g><g><circle cx="256" cy="255.275" fill="#ffb40d" r="114.508"/></g><g><path d="m370.597 255.978c0-63.174-51.213-114.387-114.387-114.387-26.179 0-50.299 8.801-69.577 23.597 4.389-.511 8.851-.783 13.377-.783 63.174 0 114.387 51.213 114.387 114.387 0 36.995-17.567 69.881-44.809 90.79 56.869-6.626 101.009-54.956 101.009-113.604z" fill="#f2a60f"/></g><g><path d="m256.725 130.547c-2.761 0-5-2.239-5-5v-62.327c0-2.761 2.239-5 5-5 2.762 0 5 2.239 5 5v62.327c0 2.762-2.239 5-5 5z" fill="#ffb40d"/></g><g><path d="m348.272 168.916c-1.279 0-2.56-.488-3.535-1.464-1.953-1.953-1.953-5.119 0-7.071l44.648-44.648c1.951-1.952 5.119-1.952 7.07 0 1.953 1.953 1.953 5.119 0 7.071l-44.648 44.648c-.975.975-2.255 1.464-3.535 1.464z" fill="#ffb40d"/></g><g><path d="m449.505 261h-63.777c-2.762 0-5-2.238-5-5 0-2.761 2.238-5 5-5h63.777c2.762 0 5 2.239 5 5 0 2.762-2.238 5-5 5z" fill="#ffb40d"/></g><g><path d="m392.921 397.688c-1.279 0-2.56-.488-3.535-1.465l-44.648-44.648c-1.953-1.952-1.953-5.118 0-7.07 1.951-1.953 5.119-1.953 7.07 0l44.648 44.648c1.953 1.952 1.953 5.118 0 7.07-.976.977-2.256 1.465-3.535 1.465z" fill="#ffb40d"/></g><g><path d="m256.725 453.78c-2.761 0-5-2.238-5-5v-62.328c0-2.762 2.239-5 5-5 2.762 0 5 2.238 5 5v62.328c0 2.762-2.239 5-5 5z" fill="#ffb40d"/></g><g><path d="m119.5 397.688c-1.28 0-2.559-.488-3.536-1.465-1.953-1.952-1.953-5.118 0-7.07l44.648-44.648c1.953-1.953 5.118-1.953 7.071 0 1.953 1.952 1.953 5.118 0 7.07l-44.648 44.648c-.976.977-2.256 1.465-3.535 1.465z" fill="#ffb40d"/></g><g><path d="m126.272 261h-63.777c-2.761 0-5-2.238-5-5 0-2.761 2.239-5 5-5h63.777c2.761 0 5 2.239 5 5 0 2.762-2.239 5-5 5z" fill="#ffb40d"/></g><g><path d="m164.148 168.916c-1.28 0-2.559-.488-3.536-1.464l-44.648-44.648c-1.953-1.953-1.953-5.119 0-7.071s5.118-1.952 7.071 0l44.648 44.648c1.953 1.953 1.953 5.119 0 7.071-.976.975-2.255 1.464-3.535 1.464z" fill="#ffb40d"/></g><g><path d="m306.028 140.692c-.638 0-1.285-.123-1.911-.382-2.552-1.057-3.763-3.981-2.706-6.533l12.08-29.168c1.056-2.551 3.981-3.76 6.532-2.707 2.552 1.057 3.763 3.981 2.706 6.533l-12.08 29.168c-.796 1.927-2.659 3.089-4.621 3.089z" fill="#ffb40d"/></g><g><path d="m206.384 140.696c-1.962 0-3.824-1.162-4.621-3.088l-12.083-29.168c-1.057-2.551.154-5.476 2.706-6.533 2.55-1.058 5.476.154 6.533 2.706l12.083 29.167c1.057 2.551-.154 5.476-2.706 6.533-.626.26-1.274.383-1.912.383z" fill="#ffb40d"/></g><g><path d="m135.921 211.16c-.638 0-1.286-.123-1.911-.382l-29.168-12.081c-2.551-1.057-3.763-3.981-2.707-6.533 1.058-2.551 3.983-3.761 6.533-2.707l29.168 12.081c2.551 1.057 3.763 3.981 2.707 6.533-.798 1.927-2.66 3.089-4.622 3.089z" fill="#ffb40d"/></g><g><path d="m106.761 322.89c-1.962 0-3.824-1.162-4.621-3.087-1.057-2.552.154-5.477 2.706-6.533l29.167-12.083c2.549-1.058 5.476.155 6.533 2.705 1.057 2.552-.154 5.477-2.706 6.533l-29.167 12.083c-.626.26-1.274.382-1.912.382z" fill="#ffb40d"/></g><g><path d="m194.308 410.435c-.638 0-1.286-.122-1.911-.382-2.551-1.057-3.763-3.981-2.707-6.532l12.081-29.169c1.057-2.552 3.984-3.764 6.533-2.706 2.551 1.057 3.763 3.981 2.707 6.532l-12.081 29.169c-.798 1.925-2.66 3.088-4.622 3.088z" fill="#ffb40d"/></g><g><path d="m318.123 410.43c-1.962 0-3.823-1.162-4.621-3.088l-12.082-29.167c-1.057-2.551.154-5.476 2.706-6.532 2.547-1.058 5.475.154 6.532 2.706l12.082 29.167c1.057 2.551-.154 5.476-2.706 6.532-.625.26-1.273.382-1.911.382z" fill="#ffb40d"/></g><g><path d="m405.664 322.879c-.638 0-1.285-.122-1.911-.382l-29.168-12.08c-2.552-1.057-3.763-3.981-2.706-6.532 1.056-2.551 3.981-3.764 6.532-2.706l29.168 12.08c2.552 1.057 3.763 3.981 2.706 6.532-.797 1.926-2.659 3.088-4.621 3.088z" fill="#ffb40d"/></g><g><path d="m376.496 211.151c-1.962 0-3.823-1.162-4.621-3.088-1.057-2.551.154-5.476 2.705-6.533l29.167-12.083c2.552-1.057 5.477.154 6.533 2.706 1.057 2.551-.154 5.476-2.705 6.533l-29.167 12.083c-.626.259-1.274.382-1.912.382z" fill="#ffb40d"/></g></g></svg>